<svg width="57" height="71" viewBox="0 0 57 71" fill="none" xmlns="http://www.w3.org/2000/svg">
<path d="M56 28.5C56 50.8438 28.5 69.75 28.5 69.75C28.5 69.75 1 50.8438 1 28.5C1 21.2065 3.89731 14.2118 9.05456 9.05456C14.2118 3.89731 21.2065 1 28.5 1C35.7935 1 42.7882 3.89731 47.9454 9.05456C53.1027 14.2118 56 21.2065 56 28.5Z" stroke="black" stroke-width="2"/>
<path d="M38.8125 28.5C38.8125 31.235 37.726 33.8581 35.792 35.792C33.8581 37.726 31.235 38.8125 28.5 38.8125C25.765 38.8125 23.1419 37.726 21.208 35.792C19.274 33.8581 18.1875 31.235 18.1875 28.5C18.1875 25.765 19.274 23.1419 21.208 21.208C23.1419 19.274 25.765 18.1875 28.5 18.1875C31.235 18.1875 33.8581 19.274 35.792 21.208C37.726 23.1419 38.8125 25.765 38.8125 28.5Z" stroke="black" stroke-width="2"/>
</svg>
