<svg width="55" height="79" viewBox="0 0 55 79" fill="none" xmlns="http://www.w3.org/2000/svg">
<path d="M27.5 0C28.3104 0 29.0876 0.320122 29.6606 0.889944C30.2336 1.45977 30.5556 2.23261 30.5556 3.03846V8.10256H47.8704C48.6808 8.10256 49.458 8.42269 50.031 8.99251C50.604 9.56233 50.9259 10.3352 50.9259 11.141C50.9259 11.9469 50.604 12.7197 50.031 13.2895C49.458 13.8594 48.6808 14.1795 47.8704 14.1795H30.5556V36.4615H37.6852C42.2774 36.4615 46.6814 38.2756 49.9286 41.5046C53.1758 44.7335 55 49.113 55 53.6795C55 58.246 53.1758 62.6254 49.9286 65.8544C46.6814 69.0834 42.2774 70.8974 37.6852 70.8974H30.5556V75.9615C30.5556 76.7674 30.2336 77.5402 29.6606 78.1101C29.0876 78.6799 28.3104 79 27.5 79C26.6896 79 25.9124 78.6799 25.3394 78.1101C24.7664 77.5402 24.4444 76.7674 24.4444 75.9615V70.8974H3.05556C2.24517 70.8974 1.46798 70.5773 0.894951 70.0075C0.321923 69.4377 0 68.6648 0 67.859C0 67.0531 0.321923 66.2803 0.894951 65.7105C1.46798 65.1406 2.24517 64.8205 3.05556 64.8205H24.4444V42.5385H17.3148C12.7226 42.5385 8.31855 40.7244 5.07139 37.4954C1.82423 34.2664 0 29.887 0 25.3205C0 20.754 1.82423 16.3746 5.07139 13.1456C8.31855 9.91659 12.7226 8.10256 17.3148 8.10256H24.4444V3.03846C24.4444 2.23261 24.7664 1.45977 25.3394 0.889944C25.9124 0.320122 26.6896 0 27.5 0ZM24.4444 14.1795H17.3148C14.3434 14.1795 11.4937 15.3533 9.3926 17.4426C7.2915 19.532 6.11111 22.3657 6.11111 25.3205C6.11111 28.2753 7.2915 31.1091 9.3926 33.1984C11.4937 35.2878 14.3434 36.4615 17.3148 36.4615H24.4444V14.1795ZM30.5556 42.5385V64.8205H37.6852C40.6566 64.8205 43.5063 63.6467 45.6074 61.5574C47.7085 59.468 48.8889 56.6343 48.8889 53.6795C48.8889 50.7247 47.7085 47.8909 45.6074 45.8016C43.5063 43.7122 40.6566 42.5385 37.6852 42.5385H30.5556Z" fill="black"/>
</svg>
