<svg width="55" height="60" viewBox="0 0 55 60" fill="none" xmlns="http://www.w3.org/2000/svg">
<path d="M6.81071 52.783H17.0268V35.7562C17.0268 34.7914 17.3537 33.9832 18.0075 33.3316C18.6614 32.6801 19.4696 32.3532 20.4321 32.3509H34.0536C35.0184 32.3509 35.8278 32.6778 36.4816 33.3316C37.1354 33.9855 37.4612 34.7937 37.4589 35.7562V52.783H47.675V22.1348L27.2429 6.81071L6.81071 22.1348V52.783ZM0 52.783V22.1348C0 21.0565 0.24178 20.0348 0.72534 19.07C1.2089 18.1051 1.87522 17.3106 2.72429 16.6862L23.1564 1.36214C24.3483 0.454048 25.7104 0 27.2429 0C28.7753 0 30.1374 0.454048 31.3293 1.36214L51.7614 16.6862C52.6128 17.3106 53.2802 18.1051 53.7638 19.07C54.2473 20.0348 54.488 21.0565 54.4857 22.1348V52.783C54.4857 54.656 53.8183 56.2599 52.4834 57.5948C51.1485 58.9297 49.5457 59.596 47.675 59.5937H34.0536C33.0887 59.5937 32.2805 59.2668 31.629 58.613C30.9774 57.9592 30.6505 57.151 30.6482 56.1884V39.1616H23.8375V56.1884C23.8375 57.1532 23.5106 57.9626 22.8568 58.6164C22.2029 59.2702 21.3947 59.596 20.4321 59.5937H6.81071C4.93777 59.5937 3.33498 58.9274 2.00235 57.5948C0.669719 56.2622 0.00227024 54.6582 0 52.783Z" fill="black"/>
</svg>
